<svg width="273" height="127" viewBox="0 0 273 127" fill="none" xmlns="http://www.w3.org/2000/svg">
<rect x="16.5701" y="2.5" width="252.946" height="121.798" fill="white" stroke="#A876FF" stroke-width="5"/>
<rect x="36.4585" y="22.7402" width="147.478" height="81.3178" fill="white" stroke="#A876FF" stroke-width="5"/>
<rect x="53.3477" y="37.8779" width="84.9392" height="23.0211" fill="white" stroke="#A876FF" stroke-width="5"/>
<line x1="50.8477" y1="74.1045" x2="128.215" y2="74.1045" stroke="#A876FF" stroke-width="5"/>
<line x1="50.8729" y1="85.3771" x2="63.0416" y2="85.5001" stroke="#A876FF" stroke-width="5"/>
<line x1="66.0416" y1="85.5001" x2="78.2103" y2="85.6232" stroke="#A876FF" stroke-width="5"/>
<line x1="81.0416" y1="85.5001" x2="93.2103" y2="85.6232" stroke="#A876FF" stroke-width="5"/>
<line x1="156.585" y1="20.2402" x2="156.585" y2="106.558" stroke="#A876FF" stroke-width="5"/>
<path d="M110.414 63.1013C110.404 64.7258 110.404 61.6507 110.414 63.1013Z" stroke="#A876FF"/>
<rect x="198.579" y="21.5498" width="48.0357" height="81.3178" fill="white" stroke="#A876FF" stroke-width="5"/>
<path d="M227.719 58.9339V94.6516M213.557 35.1221V94.6516" stroke="#A876FF" stroke-width="5"/>
<path d="M271.953 60.7205C271.943 62.3449 271.943 59.2698 271.953 60.7205Z" stroke="#A876FF"/>
<path d="M0.509839 22.0261C0.49663 23.6506 0.496811 20.5755 0.509839 22.0261Z" stroke="#A876FF"/>
<path d="M0.509839 22.0261C0.49663 23.6506 0.496811 20.5755 0.509839 22.0261Z" stroke="#A876FF"/>
</svg>
